<?xml version="1.0" encoding="utf-8"?>
<!-- Generator: Adobe Illustrator 16.0.0, SVG Export Plug-In . SVG Version: 6.00 Build 0)  -->
<!DOCTYPE svg PUBLIC "-//W3C//DTD SVG 1.1//EN" "http://www.w3.org/Graphics/SVG/1.1/DTD/svg11.dtd">
<svg version="1.1" xmlns="http://www.w3.org/2000/svg" xmlns:xlink="http://www.w3.org/1999/xlink" x="0px" y="0px" width="120px"
	 height="120px" viewBox="0 0 120 120" enable-background="new 0 0 120 120" xml:space="preserve">
<g id="Layer_1" display="none">
	<g id="Layer_1_1_">
		
			<line display="inline" fill="none" stroke="#E50012" stroke-width="0.5" x1="376.335" y1="-3453.415" x2="-173.313" y2="3613.326"/>
		
			<line display="inline" fill="none" stroke="#E50012" stroke-width="0.5" x1="2847.939" y1="-235.333" x2="-4212.604" y2="388.914"/>
		<path display="inline" fill="#E50012" d="M34.558,13.289c0,0,74.624-10.213,62.502,133.954l9.991-140.685L34.558,13.289z"/>
	</g>
	<g id="Layer_2">
		
			<line display="inline" fill="none" stroke="#E50012" stroke-width="0.5" x1="2831.523" y1="-197.881" x2="-4229.02" y2="426.366"/>
		<path display="inline" fill="#E50012" d="M0,52.421c0,0,58.442-5.556,50.545,20.001l6.264-24.846L0,52.421z"/>
	</g>
	<g enable-background="new    ">
		<path display="inline" fill="#E61E28" d="M114.064,58.115v3.092H38.669v6.918L5.273,59.824l33.25-9.115v7.406H114.064z"/>
	</g>
</g>
<g id="Layer_2_1_" display="none">
	<g display="inline">
		<path fill="#E61E28" d="M55.274,10.267h9.595v46.932h45.886v8.898H64.869v47.63h-9.595v-47.63H9.04v-8.898h46.234V10.267z"/>
	</g>
</g>
<g id="Layer_3_1_" display="none">
	<g display="inline">
		<path fill="#E61E28" d="M9.04,57.199h101.715v8.898H9.04V57.199z"/>
	</g>
</g>
<g id="Layer_4" display="none">
	<g display="inline">
		<path fill="#E61E28" d="M59.528,3.736l23.285,53.146h-47.41L59.528,3.736z"/>
	</g>
	<g display="inline">
		<path fill="#E61E28" d="M59.5,116.672L35.206,63.375h47.43L59.5,116.672z M59.5,111.403l19.953-46.008H38.508L59.5,111.403z"/>
	</g>
</g>
<g id="Layer_5">
	<path fill="#E61E28" d="M59.005,10C25.938,10,9.002,35.204,9.002,60.407C9.002,85.202,25.938,110,59.005,110
		c33.466,0,49.997-24.798,49.997-49.593C109.002,35.204,92.471,10,59.005,10z M59.004,100.672
		c-26.454,0-40.002-19.838-40.002-39.674c0-20.163,13.548-40.326,40.002-40.326c26.773,0,39.998,20.163,39.998,40.326
		C99.002,80.834,85.777,100.672,59.004,100.672z"/>
	<g>
		<path fill="#E61E28" d="M77.254,60.817c0,8.895-5.979,17.79-18.081,17.79c-11.958,0-18.082-8.896-18.082-17.79
			c0-9.041,6.125-18.082,18.082-18.082C71.275,42.735,77.254,51.776,77.254,60.817z"/>
	</g>
</g>
</svg>
