<?xml version="1.0" encoding="utf-8"?>
<!-- Generator: Adobe Illustrator 16.0.0, SVG Export Plug-In . SVG Version: 6.00 Build 0)  -->
<!DOCTYPE svg PUBLIC "-//W3C//DTD SVG 1.1//EN" "http://www.w3.org/Graphics/SVG/1.1/DTD/svg11.dtd">
<svg version="1.1" xmlns="http://www.w3.org/2000/svg" xmlns:xlink="http://www.w3.org/1999/xlink" x="0px" y="0px" width="120px"
	 height="120px" viewBox="0 0 120 120" enable-background="new 0 0 120 120" xml:space="preserve">
<g id="Layer_1" display="none">
	<path display="inline" fill="#E50012" d="M36.687,87.303c-1.759-0.427-2.219-1.028-1.384-1.824
		c0.838-0.793,1.842-1.236,3.016-1.322c1.255-0.164,3.325-0.164,6.214,0c2.886,0.171,5.506,0.384,7.85,0.629
		c1.085,0.087,1.69,0.53,1.818,1.322c0.125,0.79,0.188,1.654,0.188,2.57v17.455c-0.08,1.51,0.251,2.559,1.006,3.14
		c0.754,0.582,1.63,0.881,2.636,0.881c7.954,0.084,13.414,0.042,16.383-0.129c2.979-0.17,5.845-0.33,8.605-0.5
		c4.438-0.252,7.158-0.876,8.162-1.882c1.006-1.008,2.178-1.553,3.517-1.638c1.757-0.165,3.684-0.165,5.774,0
		c2.092,0.171,3.974,0.465,5.65,0.885c1.589,0.33,2.387,1.505,2.387,3.515s-1.552,3.012-4.646,3.012l-45.957,0.129
		c-4.188-0.331-7.137-1.303-8.855-2.891c-1.714-1.59-2.528-4.265-2.445-8.034L46.48,92.446c-0.17-1.924-1.381-3.16-3.641-3.7
		C40.579,88.197,38.526,87.72,36.687,87.303 M91.684,56.284c-2.512,0.085-4.814,0.23-6.906,0.443
		c-2.091,0.208-3.56,0.395-4.395,0.56c-2.093,0.336-3.141,0.778-3.141,1.323c0,0.543-1.047,0.564-3.137,0.064
		c-1.256-0.337-2.719-0.88-4.396-1.632c-1.677-0.758-2.844-1.301-3.516-1.631c-0.922-0.507-1.381-1.109-1.381-1.824
		c0-0.714,1.005-0.863,3.014-0.437c2.43,0.501,6.072,0.602,10.923,0.309c4.854-0.288,9.167-0.607,12.935-0.938V16.107
		c-1.506-1.68-3.434-3.061-5.776-4.148c-2.341-1.087-4.601-1.925-6.78-2.51c-1.255-0.332-1.823-0.752-1.697-1.253
		c0.131-0.502,1.115-1.051,2.953-1.632c1.174-0.426,3.434-0.314,6.779,0.315c3.349,0.624,6.824,1.567,10.423,2.82
		c2.178,0.758,3.058,1.653,2.636,2.698c-0.418,1.051-0.671,2.202-0.751,3.456l-0.128,54.998c0,5.609-0.418,11.005-1.256,16.198
		c-0.834,5.192-2.215,7.784-4.143,7.784c-1.338,0-2.052-1.903-2.135-5.705c-0.08-3.811-0.125-6.013-0.125-6.601V56.284z
		 M33.797,19.871c-0.835-0.671-1.084-1.312-0.751-1.941c0.33-0.64,1.297-0.735,2.886-0.319c2.178,0.586,5.819,1.023,10.924,1.322
		c5.105,0.289,8.79,0.437,11.05,0.437c2.682,0,4.1,0.982,4.271,2.954c0.168,1.963-1.256,2.901-4.271,2.821
		c-1.173,0-2.762-0.042-4.772-0.123c-2.007-0.085-4.1,0.08-6.278,0.501c-1.338,0.251-2.282,0.331-2.828,0.251
		c-0.542-0.081-1.146-0.294-1.819-0.629c-1.255-0.667-2.782-1.589-4.583-2.762C35.829,21.209,34.552,20.372,33.797,19.871
		 M51.752,59.173c-2.089,1.84-4.078,3.493-5.959,4.958c-1.885,1.467-4.129,3.034-6.72,4.713c-6.36,4.095-12.055,7.406-17.08,9.916
		c-5.022,2.512-7.992,3.978-8.915,4.395c-0.923,0.331-1.506,0.255-1.756-0.251c-0.254-0.501,0.206-1.083,1.38-1.754
		c2.18-1.173,5.191-3.04,9.04-5.592c3.849-2.555,7.743-5.295,11.679-8.227c3.346-2.507,7.386-5.918,12.113-10.227
		c4.735-4.313,9.359-10.034,13.878-17.146c-7.112,0.17-12.43,0.401-15.947,0.693c-3.516,0.288-6.194,0.48-8.035,0.564
		c-1.588,0.081-2.615,0.444-3.073,1.068c-0.466,0.628-1.655,0.607-3.583-0.064c-0.922-0.331-2.594-0.981-5.022-1.941
		c-2.428-0.97-4.146-1.743-5.148-2.324c-0.837-0.587-1.071-1.13-0.693-1.631c0.376-0.507,1.111-0.63,2.2-0.384
		c1.084,0.256,2.282,0.448,3.574,0.57c1.301,0.128,2.66,0.229,4.084,0.315c6.198,0.245,12.409,0.293,18.645,0.123
		c6.24-0.165,10.153-0.336,11.742-0.502c0.672-0.08,1.234-0.357,1.693-0.815c0.463-0.458,1.275-0.65,2.452-0.565
		c1.338,0.08,2.511,0.128,3.516,0.128s2.341,0.122,4.017,0.373c0.923,0.085,1.611,0.458,2.068,1.13
		c0.465,0.671-0.561,1.839-3.072,3.519c-1.424,1.924-3.621,4.644-6.59,8.157c-2.975,3.519-5.673,6.451-8.101,8.792
		c0.922,0.837,1.818,1.711,2.698,2.639c0.877,0.917,1.865,1.71,2.954,2.383c2.177,1.338,3.913,2.218,5.208,2.639
		c1.297,0.416,2.492,1.301,3.579,2.635c1.173,1.337,2.09,2.89,2.763,4.648c0.672,1.758,1.174,3.471,1.508,5.149
		c0.331,1.589-0.082,2.678-1.258,3.264c-1.173,0.58-2.383,0-3.642-1.761L51.752,59.173z"/>
</g>
<g id="Layer_2" display="none">
	<path display="inline" fill="#E50012" d="M33.136,9.097c0.671,0.08,1.194,0.25,1.572,0.501c0.378,0.251,0.646,0.459,0.815,0.63
		C55.282,9.891,66.83,9.555,70.179,9.219c2.43-0.25,4.019-0.772,4.771-1.567c0.752-0.794,2.052-1.274,3.892-1.444
		c1.088-0.166,2.361-0.229,3.827-0.192c1.467,0.048,3.247,0.234,5.338,0.57c1.759,0.25,2.766,1.38,3.017,3.391
		c0.251,2.005-1.465,3.055-5.149,3.135l-50.1,1.131v20.595c0.17,1.083,0.458,1.946,0.879,2.569c0.416,0.629,1.338,0.944,2.763,0.944
		c7.863,0,14.417-0.123,19.645-0.374c5.235-0.256,9.107-0.5,11.618-0.756c4.19-0.416,6.488-0.981,6.91-1.695
		c0.415-0.709,1.46-1.194,3.136-1.44c1.678-0.256,3.453-0.378,5.335-0.378c1.883,0,3.536,0.122,4.964,0.378
		c1.504,0.246,2.319,1.312,2.447,3.2c0.123,1.881-1.273,2.825-4.207,2.825l-50.605,2.009c-2.928,0-5.523-0.672-7.785-2.009
		c-2.26-1.338-3.391-4.393-3.391-9.165V15.5c-0.165-1.258-1.402-2.197-3.705-2.825c-2.298-0.63-3.908-1.11-4.831-1.445
		c-1.679-0.582-2.031-1.253-1.066-2.011c0.959-0.751,1.898-1.172,2.826-1.253c0.922-0.08,2.761,0.021,5.523,0.31
		C28.992,8.569,31.295,8.846,33.136,9.097 M56.742,62.209c-6.952,0.251-12.806,0.526-17.577,0.821
		c-4.772,0.287-8.249,0.517-10.423,0.687c-3.599,0.171-5.673,0.71-6.217,1.633c-0.544,0.921-2.155,0.959-4.835,0.127
		c-2.176-0.757-4.244-1.577-6.217-2.446c-1.967-0.886-3.621-1.744-4.958-2.576c-1.087-0.671-1.53-1.279-1.317-1.823
		c0.209-0.543,0.939-0.736,2.197-0.564c4.1,0.586,7.641,0.938,10.609,1.065c2.976,0.128,8.142,0.149,15.51,0.064
		c9.713-0.086,20.888-0.479,33.524-1.194c12.641-0.714,19.886-1.109,21.726-1.195c4.186-0.165,6.802-0.649,7.842-1.444
		c1.05-0.794,2.783-1.189,5.215-1.189c0.923,0,2.089,0.06,3.519,0.192c1.423,0.117,3.184,0.395,5.272,0.811
		c2.175,0.336,3.183,1.567,3.012,3.711c-0.17,2.127-2.468,2.99-6.904,2.568c-3.347-0.33-9.356-0.441-18.025-0.31
		c-8.663,0.117-16.592,0.353-23.788,0.684l-1.009,32.778c-0.078,3.592-0.544,7.532-1.38,11.804
		c-0.832,4.265-2.213,6.354-4.144,6.274c-0.836,0-1.321-0.672-1.439-2.01c-0.133-1.333-0.191-2.932-0.191-4.767V62.209z"/>
</g>
<g id="Layer_3">
	<path fill="#E50012" d="M76.786,91.214c0-4.44-1.658-8.061-4.958-10.864c-3.312-2.805-7.182-4.207-11.618-4.207
		c-4.691,0-8.662,1.402-11.931,4.207c-3.264,2.804-4.896,6.424-4.896,10.864c0,4.438,1.69,7.986,5.082,10.674
		c3.389,2.678,7.304,4.015,11.744,4.015c4.771,0,8.729-1.337,11.863-4.015C75.219,99.2,76.786,95.651,76.786,91.214 M56.692,42.368
		l-15.44,0.374c-2.933,0-5.529-0.672-7.789-2.005c-2.26-1.343-3.391-4.398-3.391-9.17V17.379c-0.166-1.253-1.402-2.202-3.706-2.831
		c-2.297-0.629-3.907-1.108-4.83-1.44c-1.674-0.586-2.032-1.257-1.072-2.009c0.966-0.752,1.91-1.173,2.833-1.253
		c0.921-0.085,2.76,0.021,5.521,0.309c2.762,0.298,5.066,0.565,6.904,0.821c0.673,0.081,1.19,0.251,1.567,0.501
		c0.38,0.251,0.651,0.459,0.821,0.63c20.339-0.336,32.186-0.672,35.534-1.008c2.431-0.25,4.021-0.773,4.772-1.573
		c0.751-0.789,2.053-1.269,3.892-1.439c1.087-0.17,2.36-0.229,3.832-0.191c1.461,0.042,3.242,0.233,5.333,0.564
		c1.76,0.256,2.761,1.387,3.017,3.392c0.251,2.015-1.465,3.06-5.15,3.145l-50.979,1.13v19.333c0.171,1.087,0.459,1.945,0.881,2.569
		c0.422,0.629,1.338,0.948,2.763,0.948c7.864,0,14.607-0.149,20.215-0.442c5.604-0.293,9.667-0.56,12.179-0.816
		c4.189-0.416,6.486-0.874,6.908-1.38c0.416-0.501,1.461-0.879,3.135-1.131c1.68-0.25,3.46-0.379,5.343-0.379
		c1.882,0,3.529,0.128,4.958,0.379c1.504,0.251,2.319,1.317,2.446,3.199c0.13,1.882-1.273,2.832-4.204,2.832l-28.253,0.874
		l-0.249,15.451c7.196-0.17,12.427-0.379,15.695-0.629c3.262-0.256,6.065-0.421,8.412-0.502c4.1-0.171,6.526-0.607,7.283-1.322
		c0.751-0.714,2.175-1.109,4.265-1.194c2.683-0.08,4.964,0.021,6.851,0.314c1.882,0.294,3.449,0.57,4.703,0.816
		c1.008,0.17,1.817,1.439,2.453,3.828c0.627,2.389-1.904,3.412-7.6,3.081c-6.951-0.422-14.671-0.607-23.164-0.57
		c-8.503,0.048-16.389,0.24-23.672,0.57c-7.117,0.331-13.712,0.672-19.779,1.003c-6.066,0.331-10.652,0.714-13.75,1.13
		c-0.832,0.086-1.611,0.379-2.323,0.879c-0.71,0.503-1.525,0.71-2.448,0.63c-2.933-0.336-5.902-1.302-8.914-2.889
		c-3.012-1.589-4.98-2.683-5.901-3.271c-1.003-0.665-1.359-1.332-1.071-2.002c0.297-0.673,1.071-0.88,2.329-0.63
		c1.925,0.331,4.016,0.63,6.274,0.879c2.262,0.251,4.606,0.459,7.031,0.629c5.53,0.331,11.869,0.379,19.029,0.123
		c7.15-0.25,12.742-0.459,16.762-0.63L56.692,42.368z M65.361,69.99c-0.172,0.25-0.38,0.549-0.63,0.879
		c-0.249,0.331-0.503,0.673-0.757,1.002c5.693,0.838,10.401,2.998,14.133,6.468c3.723,3.476,5.582,7.768,5.582,12.875
		c0,6.44-2.43,11.485-7.282,15.126c-4.852,3.646-10.252,5.465-16.197,5.465c-6.36,0-11.931-1.718-16.703-5.15
		c-4.771-3.435-7.154-8.584-7.154-15.44c0-5.608,2.111-10.129,6.345-13.563c4.222-3.433,9.271-5.399,15.125-5.901
		c0.171-0.336,0.298-0.586,0.379-0.752c0.079-0.17,0.17-0.426,0.249-0.757c0.172-0.501,0.13-0.943-0.122-1.322
		c-0.25-0.373-0.837-0.896-1.758-1.566c-1.008-0.753-1.132-1.397-0.38-1.947c0.757-0.537,1.803-0.607,3.14-0.187
		c0.752,0.171,1.696,0.502,2.827,1.004c1.129,0.5,2.024,1.007,2.696,1.507c0.588,0.423,0.9,0.773,0.943,1.066
		C65.842,69.09,65.691,69.488,65.361,69.99"/>
</g>
</svg>
