<?xml version="1.0" encoding="utf-8"?>
<!-- Generator: Adobe Illustrator 16.0.0, SVG Export Plug-In . SVG Version: 6.00 Build 0)  -->
<!DOCTYPE svg PUBLIC "-//W3C//DTD SVG 1.1//EN" "http://www.w3.org/Graphics/SVG/1.1/DTD/svg11.dtd">
<svg version="1.1" xmlns="http://www.w3.org/2000/svg" xmlns:xlink="http://www.w3.org/1999/xlink" x="0px" y="0px" width="120px"
	 height="120px" viewBox="0 0 120 120" enable-background="new 0 0 120 120" xml:space="preserve">
<g id="Layer_1" display="none">
	<g id="Layer_1_1_">
		
			<line display="inline" fill="none" stroke="#E50012" stroke-width="0.5" x1="376.335" y1="-3453.415" x2="-173.313" y2="3613.326"/>
		
			<line display="inline" fill="none" stroke="#E50012" stroke-width="0.5" x1="2847.939" y1="-235.333" x2="-4212.604" y2="388.914"/>
		<path display="inline" fill="#E50012" d="M34.558,13.289c0,0,74.624-10.213,62.502,133.954l9.991-140.685L34.558,13.289z"/>
	</g>
	<g id="Layer_2">
		
			<line display="inline" fill="none" stroke="#E50012" stroke-width="0.5" x1="2831.523" y1="-197.881" x2="-4229.02" y2="426.366"/>
		<path display="inline" fill="#E50012" d="M0,52.421c0,0,58.442-5.556,50.545,20.001l6.264-24.846L0,52.421z"/>
	</g>
	<g id="Layer_3" display="inline">
		<text transform="matrix(1.792 0 0 1 -12.6646 96.5264)" fill="#E61E28" font-family="'ahn2006-L'" font-size="83.3335">←</text>
	</g>
</g>
<g id="Layer_2_1_">
	<g>
		<path fill="#E61E28" d="M55.274,10.267h9.595v46.932h45.886v8.898H64.869v47.63h-9.595v-47.63H9.04v-8.898h46.234V10.267z"/>
	</g>
</g>
<g id="Layer_3_1_" display="none">
	<g display="inline">
		<path fill="#E61E28" d="M9.04,57.199h101.715v8.898H9.04V57.199z"/>
	</g>
</g>
<g id="Layer_4" display="none">
	<g display="inline">
		<path fill="#E61E28" d="M59.528,3.736l23.285,53.146h-47.41L59.528,3.736z"/>
	</g>
	<g display="inline">
		<path fill="#E61E28" d="M59.5,116.672L35.206,63.375h47.43L59.5,116.672z M59.5,111.403l19.953-46.008H38.508L59.5,111.403z"/>
	</g>
</g>
<g id="Layer_5" display="none">
	
		<text transform="matrix(1 0 0 1 0 106.375)" display="inline" font-family="'AdobeMyungjoStd-Medium-KSCpc-EUC-H'" font-size="120">•</text>
	
		<text transform="matrix(1 0 0 1 9.625 98.042)" display="inline" font-family="'AdobeMyungjoStd-Medium-KSCpc-EUC-H'" font-size="98.5993">○</text>
</g>
</svg>
